<svg width="764" height="428" fill="none" viewBox="0 0 764 428" xmlns="http://www.w3.org/2000/svg"><path d="M274.125 350.405s20.055 7.133 52.445 11.532c32.391 4.399 66.611 5.984 66.611 5.984l-3.899-20.448-105.687-12.523-9.47 15.455ZM348.893 240.829c1.114 4.161 130.955 15.575 130.955 15.575l61.836 5.944 51.61-13.87-16.514-29.247-20.095-12.087-143.966-8.362-38.041 18.269-25.785 23.778Z" fill="#000"></path><path d="M608.693 317.671c-1.432 3.884.796-7.529.12-16.446-.677-8.56-5.173-14.544-11.262-12.642-7.838 2.417-11.857 17.16-12.136 25.64-.318 8.441 1.393 16.09.676 16.883-1.91 2.1-71.823 21.637-72.42 20.567-.597-1.07 5.212-16.406.477-35.468-3.263-13.038-11.42-24.253-23.437-20.568-12.017 3.686-17.986 17.16-20.572 30.237-3.781 19.102 0 38.283-2.07 40.542-2.069 2.258-72.062 2.774-74.848 1.545-2.785-1.228-10.186-12.285-12.972-14.148-2.785-1.862-88.735-16.644-93.63-14.306-3.103 1.506-7.441 12.642-12.494 10.938-3.104-1.031-6.805-5.826-7.401-7.371-.597-1.546-1.234-56.314-1.234-56.314s5.133 6.143 12.136 5.112c7.004-1.03 9.272-3.012 9.232-4.716-.079-4.161-9.868-13.513-9.868-13.513s5.77-7.966 23.238-15.575c17.906-7.767 40.19-16.089 40.19-16.089s39.035-35.469 66.094-43.157c27.058-7.688 135.013-3.21 157.217 8.124 22.203 11.334 29.207 34.161 30.042 36.261.836 2.1 6.009 1.902 8.874 5.984s9.908 30.753 10.306 41.017c.398 10.264-2.825 23.579-4.258 27.463Zm-149.338-33.923c-2.626-1.704-22.045 1.546-41.184 3.567-19.14 2.021-43.095 8.401-43.493 10.898-.477 2.933 8.158 7.213 15.877 10.304 7.72 3.091 59.369-.159 65.378-6.46 6.048-6.301 6.048-16.605 3.422-18.309Zm47.352-59.286c7.799-10.858 10.664-13.87 10.227-14.821-2.746-5.865-93.551-9.194-104.653-6.896-11.101 2.299-26.023 9.908-40.388 20.528-8.476 6.262-15.041 11.731-18.981 15.139-1.472 1.308-.557 3.725 1.393 3.725 13.052-.04 45.482.04 57.658 1.268 15.439 1.546 60.006 7.213 69.238 6.46 9.311-.793 18.622-15.812 25.506-25.403Zm58.176-10.422c-14.325-5.548-29.725-6.143-34.739-.714-3.501 3.805-28.53 38.956-28.53 38.956s16.195-10.303 29.605-3.368c7.361 3.804 7.083 7.529 7.083 7.529s45.8-5.072 47.67-8.441c1.831-3.408-6.764-28.414-21.089-33.962Z" fill="#A7E92F"></path><path d="M521.231 269.521c4.974 0 9.55-.198 11.42-.793 5.571-1.822 6.725-7.054 6.765-7.252a1.24 1.24 0 0 0-.915-1.426c-.637-.119-1.274.277-1.393.911-.04.159-.955 4.122-5.173 5.509-3.661 1.188-21.766.515-28.451.158a1.2 1.2 0 0 0-1.273 1.11 1.199 1.199 0 0 0 1.114 1.268c1.512.079 10.226.515 17.906.515Z" fill="#000"></path><path d="M533.845 332.136h.597c8.953-.515 20.254-12.325 23.517-15.931 2.785-3.091 10.903-12.642 13.688-21.876a29.361 29.361 0 0 1 9.033 1.189l2.387-7.886c-3.461-1.031-7.043-1.585-10.704-1.585-.875-4.716-4.337-7.966-9.788-8.957-26.462-4.834-49.621 11.612-50.576 12.325l4.855 6.658c.199-.159 21.328-15.099 44.248-10.898 2.149.396 2.746 1.189 2.945 1.664-1.83.357-3.701.872-5.571 1.467-7.123 2.338-14.046 6.34-20.015 11.651-11.102 9.828-14.047 19.141-13.092 24.57.876 4.756 4.059 7.609 8.476 7.609Zm28.332-36.301c-.319.634-.637 1.308-1.035 2.021-2.706 4.914-6.764 10.264-11.46 15.099-8.078 8.322-14.205 11.176-15.877 10.938-.039-.119-.159-.357-.238-.793-.558-3.249 2.865-10.303 10.425-17.001 4.735-4.201 11.142-8.203 18.185-10.264Z" fill="#fff"></path><path d="M496.361 382.069c5.412 0 10.903-3.923 15.559-11.215 4.894-7.648 8.356-18.15 9.788-29.564 1.433-11.413.637-22.47-2.228-31.069-2.944-8.877-7.839-14.188-13.688-14.901l-.159 1.189.159-1.189c-5.85-.713-11.858 3.21-16.951 11.136-4.895 7.648-8.357 18.15-9.789 29.564-1.433 11.413-.637 22.47 2.228 31.069 2.945 8.877 7.839 14.188 13.689 14.901.477.04.915.079 1.392.079Zm8.078-84.45c.358 0 .716.039 1.074.079 4.895.594 9.073 5.35 11.699 13.315 2.746 8.283 3.502 18.943 2.109 30-1.393 11.096-4.735 21.241-9.431 28.573-4.536 7.094-9.749 10.66-14.643 10.026-4.894-.594-9.072-5.35-11.699-13.315-2.745-8.283-3.501-18.943-2.109-30 1.393-11.096 4.736-21.241 9.431-28.573 4.218-6.578 8.993-10.105 13.569-10.105Z" fill="#000"></path><path d="M499.067 357.023c3.979 0 7.083-8.282 8.118-16.763.557-4.478.517-8.758-.08-12.087-.875-4.835-2.666-6.024-4.019-6.182-1.353-.159-3.422.555-5.451 5.033-1.393 3.051-2.468 7.212-3.025 11.69-1.074 8.679-.039 17.755 4.099 18.27.119.039.239.039.358.039Zm3.661-32.654h.04c.437.039 1.392 1.03 1.989 4.24.557 3.091.557 7.133.04 11.374-1.234 9.788-4.496 14.821-5.81 14.663-1.313-.159-3.262-5.826-2.029-15.614.517-4.241 1.552-8.164 2.825-11.018 1.353-2.932 2.467-3.645 2.945-3.645ZM590.667 341.687c7.68 0 14.962-11.453 16.912-26.869.915-7.49.398-14.703-1.472-20.37-1.99-5.944-5.253-9.471-9.232-9.987-3.979-.475-8.038 2.14-11.42 7.411-3.223 5.033-5.492 11.889-6.447 19.379-.955 7.49-.397 14.703 1.473 20.37 1.989 5.944 5.252 9.471 9.231 9.986.319.08.637.08.955.08Zm5.253-54.848c.199 0 .398 0 .637.04 2.984.357 5.61 3.408 7.281 8.362 1.791 5.31 2.269 12.166 1.353 19.339-1.79 14.227-8.714 25.521-15.16 24.729-2.985-.357-5.611-3.408-7.282-8.362-1.791-5.31-2.268-12.166-1.353-19.339.875-7.134 3.064-13.672 6.088-18.388 2.587-4.122 5.65-6.381 8.436-6.381Z" fill="#000"></path><path d="M592.418 325.438c2.945 0 5.014-5.746 5.69-11.254.359-2.933.359-5.786-.039-7.966-.597-3.368-1.95-4.24-2.985-4.359-3.103-.396-5.252 5.548-5.968 11.215-.717 5.667-.08 11.968 3.024 12.325.079.039.159.039.278.039Zm2.348-21.241c.597.357 1.711 3.646.955 9.67-.756 6.063-2.626 8.956-3.303 9.154-.597-.357-1.711-3.646-.955-9.67.756-6.023 2.627-8.956 3.303-9.154ZM485.458 381.316c.637 0 1.154-.515 1.194-1.149a1.146 1.146 0 0 0-1.154-1.228c-.159 0-16.871-.753-23.318-5.192-3.263-2.259-3.78-4.042-3.78-4.082-.119-.634-.756-1.03-1.393-.911a1.17 1.17 0 0 0-.915 1.426c.04.278.637 2.735 4.775 5.548 7.043 4.796 23.875 5.549 24.591 5.588-.039 0-.039 0 0 0ZM581.874 340.934c.557 0 1.074-.397 1.193-.991a1.145 1.145 0 0 0-.994-1.347l-6.765-1.11a1.15 1.15 0 0 0-1.353.991 1.145 1.145 0 0 0 .995 1.347l6.764 1.11h.16ZM345.79 301.938c6.645 0 14.006-.277 22.203-.951a1.139 1.139 0 0 0 1.075-1.268 1.14 1.14 0 0 0-1.274-1.07c-27.973 2.298-46.277-.079-56.703-2.497-11.301-2.615-16.036-5.786-16.076-5.825a1.215 1.215 0 0 0-1.671.317 1.204 1.204 0 0 0 .319 1.664c.676.396 14.524 9.63 52.127 9.63Z" fill="#000"></path><path d="M563.609 209.562c-.119 1.307-.119 48.189-.119 48.189l7.043-1.902-2.348-44.9-4.576-1.387Z" fill="#A5E82F"></path><path d="M367.914 292.467c.477 0 .955-.317 1.114-.793.239-.634-.08-1.308-.716-1.506-.16-.079-17.708-6.38-38.877-9.352-11.141-1.546-20.015-.991-25.466-.199-5.969.833-9.272 2.022-9.431 2.061-.637.238-.955.912-.716 1.546.238.634.915.951 1.512.713.04 0 3.263-1.189 9.032-1.981 5.293-.714 13.888-1.269 24.711.237 20.891 2.933 38.2 9.155 38.359 9.194.199.04.358.08.478.08ZM372.53 340.656c4.695 0 29.923-17.239 34.976-20.726.557-.357.677-1.11.319-1.664-.358-.555-1.114-.674-1.672-.317-12.255 8.441-30.719 20.29-33.584 20.29h-.039c-1.95-.04-20.374-2.259-40.27-4.954-27.217-3.685-38.319-5.667-39.672-6.301-1.751-1.506-10.306-15.931-15.32-24.768-.318-.555-1.034-.753-1.631-.436-.557.317-.756 1.03-.438 1.625 2.228 3.923 13.489 23.579 15.996 25.521.518.396 1.871 1.466 40.15 6.658 18.822 2.536 38.837 5.033 41.185 5.072ZM269.867 265.994a1.17 1.17 0 0 0 1.194-1.189V128.836l42.418-29.564v144.49a1.17 1.17 0 0 0 1.193 1.189 1.17 1.17 0 0 0 1.194-1.189V96.974c0-.436-.239-.833-.636-1.07a1.247 1.247 0 0 0-1.234.079l-44.805 31.228a1.238 1.238 0 0 0-.518.991v136.564c0 .673.518 1.228 1.194 1.228ZM413.197 190.103a1.17 1.17 0 0 0 1.193-1.189v-34.517a1.24 1.24 0 0 0-.517-.991l-44.805-31.228c-.557-.396-1.274-.238-1.672.278-.398.554-.238 1.268.279 1.664l44.288 30.871v33.884c.04.674.557 1.228 1.234 1.228Z" fill="#000"></path><path d="M368.391 210.83a1.17 1.17 0 0 0 1.194-1.189V65.231a1.17 1.17 0 0 0-1.194-1.19h-67.168a1.17 1.17 0 0 0-1.194 1.19v29.286a1.17 1.17 0 0 0 1.194 1.189 1.17 1.17 0 0 0 1.194-1.19V66.42h64.78v143.222c0 .673.558 1.189 1.194 1.189ZM269.867 147.224h24.989a1.17 1.17 0 0 0 1.194-1.189 1.17 1.17 0 0 0-1.194-1.189h-24.989a1.17 1.17 0 0 0-1.194 1.189 1.17 1.17 0 0 0 1.194 1.189ZM269.867 169.536h24.989a1.17 1.17 0 0 0 1.194-1.189 1.17 1.17 0 0 0-1.194-1.189h-24.989a1.17 1.17 0 0 0-1.194 1.189c0 .673.518 1.189 1.194 1.189ZM269.867 193.353h24.989a1.17 1.17 0 0 0 1.194-1.189 1.17 1.17 0 0 0-1.194-1.189h-24.989a1.17 1.17 0 0 0-1.194 1.189 1.17 1.17 0 0 0 1.194 1.189ZM269.867 215.665h24.989a1.17 1.17 0 0 0 1.194-1.189 1.17 1.17 0 0 0-1.194-1.189h-24.989a1.17 1.17 0 0 0-1.194 1.189c0 .634.518 1.189 1.194 1.189ZM269.867 237.976h24.989a1.17 1.17 0 0 0 1.194-1.189 1.17 1.17 0 0 0-1.194-1.189h-24.989a1.17 1.17 0 0 0-1.194 1.189 1.17 1.17 0 0 0 1.194 1.189ZM225.101 212.415h24.99a1.17 1.17 0 0 0 1.193-1.189 1.17 1.17 0 0 0-1.193-1.189h-24.99a1.17 1.17 0 0 0-1.193 1.189 1.17 1.17 0 0 0 1.193 1.189ZM225.101 233.458h24.99a1.17 1.17 0 0 0 1.193-1.189 1.17 1.17 0 0 0-1.193-1.189h-24.99a1.17 1.17 0 0 0-1.193 1.189 1.17 1.17 0 0 0 1.193 1.189ZM225.101 255.77h24.99a1.17 1.17 0 0 0 1.193-1.189 1.17 1.17 0 0 0-1.193-1.189h-24.99a1.17 1.17 0 0 0-1.193 1.189 1.17 1.17 0 0 0 1.193 1.189ZM387.73 173.776h24.989a1.17 1.17 0 0 0 1.194-1.189 1.17 1.17 0 0 0-1.194-1.189H387.73a1.17 1.17 0 0 0-1.194 1.189c0 .674.557 1.189 1.194 1.189ZM314.633 177.699h31.355a1.17 1.17 0 0 0 1.194-1.189 1.17 1.17 0 0 0-1.194-1.188h-31.355a1.17 1.17 0 0 0-1.194 1.188c0 .674.557 1.189 1.194 1.189ZM314.633 200.011h31.355a1.17 1.17 0 0 0 1.194-1.189 1.17 1.17 0 0 0-1.194-1.189h-31.355a1.17 1.17 0 0 0-1.194 1.189c0 .674.557 1.189 1.194 1.189Z" fill="#000"></path><path d="M314.633 156.141h31.355a1.17 1.17 0 0 0 1.194-1.189 1.17 1.17 0 0 0-1.194-1.189h-31.355a1.17 1.17 0 0 0-1.194 1.189c0 .674.557 1.189 1.194 1.189ZM336.518 112.39h31.356c.676 0 1.194-.516 1.194-1.189a1.17 1.17 0 0 0-1.194-1.189h-31.356a1.17 1.17 0 0 0-1.194 1.189c0 .673.557 1.189 1.194 1.189ZM336.518 89.087h31.356a1.17 1.17 0 0 0 1.194-1.189 1.17 1.17 0 0 0-1.194-1.188h-31.356a1.17 1.17 0 0 0-1.194 1.189c0 .673.557 1.188 1.194 1.188ZM225.101 301.899a1.17 1.17 0 0 0 1.194-1.189V177.818h39.354a1.17 1.17 0 0 0 1.194-1.189c0-.673-.518-1.189-1.194-1.189h-40.548a1.17 1.17 0 0 0-1.193 1.189v124.12c0 .634.517 1.15 1.193 1.15ZM538.262 410.127c.119 0 .239 0 .358-.04.557-.158 56.066-16.723 99.201-49.299 19.895-15.019 28.65-28.89 26.063-41.215-1.83-8.639-9.43-16.446-22.005-22.628-9.351-4.597-18.065-6.698-18.423-6.777a1.182 1.182 0 1 0-.557 2.299c.358.079 34.579 8.361 38.637 27.582 2.388 11.334-6.048 24.412-25.148 38.837-42.816 32.338-97.887 48.744-98.444 48.942-.637.199-.995.833-.796 1.467.119.475.597.832 1.114.832ZM87.422 373.866h.16c87.661-10.819 162.35-30.515 163.106-30.713.636-.159 1.034-.832.835-1.466a1.174 1.174 0 0 0-1.472-.833c-.756.199-75.246 19.855-162.788 30.634-.637.079-1.114.674-1.034 1.308.08.634.597 1.07 1.193 1.07Z" fill="#000"></path><path d="m426.248 46.288 61.041-15.456a4.56 4.56 0 0 1 2.069 0l61.04 15.456a4.186 4.186 0 0 1 3.144 3.764c.756 12.642 2.825 61.783-9.311 85.64-15.599 30.673-47.949 42.205-54.674 44.306a4.351 4.351 0 0 1-2.467 0c-6.685-2.101-39.076-13.633-54.674-44.306-12.136-23.857-10.067-72.998-9.311-85.64a4.186 4.186 0 0 1 3.143-3.764Z" fill="#A7E92F"></path><path d="M482.593 176.471c.518 0 1.075-.079 1.592-.238 6.446-2.021 39.513-13.712 55.35-44.9 5.253-10.304 8.476-26.314 9.63-47.516.915-17.08.159-32.774-.199-38.758-.159-2.338-1.751-4.28-4.019-4.835l-61.04-15.455a4.927 4.927 0 0 0-2.627 0l-61.04 15.455a5.28 5.28 0 0 0-4.019 4.835c-.358 5.984-1.114 21.677-.199 38.758 1.154 21.202 4.377 37.212 9.63 47.516 15.837 31.149 48.903 42.879 55.35 44.9a5.724 5.724 0 0 0 1.591.238Zm0-149.483c.239 0 .478.04.717.08l61.04 15.455c1.273.317 2.149 1.387 2.228 2.694.359 5.945 1.115 21.559.199 38.48-1.114 20.886-4.257 36.539-9.351 46.566-15.399 30.316-47.63 41.73-53.957 43.711a2.655 2.655 0 0 1-1.751 0c-6.327-1.981-38.558-13.395-53.958-43.672-5.093-10.026-8.236-25.68-9.351-46.565-.915-16.921-.159-32.535.199-38.48.08-1.308.955-2.378 2.229-2.695l61.04-15.455c.239-.08.478-.12.716-.12Z" fill="#000"></path><path d="m477.023 129.391-28.65-29.009 10.306-10.106 17.627 17.834 26.223-30.476 10.983 9.393-36.489 42.364Z" fill="#fff"></path></svg>